<?xml version="1.0" encoding="UTF-8"?><svg id="Layer_2" xmlns="http://www.w3.org/2000/svg" viewBox="0 0 310.05 67.86"><defs><style>.cls-1{fill:#fff;}</style></defs><g id="Layer_1-2"><g><g><path class="cls-1" d="M61.23,67.75l-.1-40.38-19.8,33.26h-7.02L14.61,28.24v39.51H0V.46H12.88l25.19,41.82L62.87,.46h12.79l.19,67.29h-14.61Z"/><path class="cls-1" d="M136.11,53.33h-31.24l-5.96,14.42h-15.96L112.95,.46h15.38l30.09,67.29h-16.34l-5.96-14.42Zm-4.9-11.82l-10.67-25.76-10.67,25.76h21.34Z"/></g><g><path class="cls-1" d="M205.22,17.35c0,10.58-7.63,16.92-20.31,16.92h-14.4v16.49h-3.67V.36h18.07c12.67,0,20.31,6.34,20.31,16.99Zm-3.74,0c0-8.71-5.76-13.68-16.56-13.68h-14.4V30.96h14.4c10.8,0,16.56-4.97,16.56-13.61Z"/><path class="cls-1" d="M213.5,25.56c0-14.62,11.16-25.56,26.21-25.56s26.21,10.87,26.21,25.56-11.23,25.56-26.21,25.56-26.21-10.94-26.21-25.56Zm48.68,0c0-12.75-9.65-22.18-22.47-22.18s-22.54,9.43-22.54,22.18,9.65,22.18,22.54,22.18,22.47-9.43,22.47-22.18Z"/><path class="cls-1" d="M273.55,44.28l1.66-2.74c3.46,3.6,9.87,6.34,16.63,6.34,10.08,0,14.54-4.39,14.54-9.86,0-15.12-31.47-6.05-31.47-24.63,0-7.13,5.47-13.39,17.86-13.39,5.54,0,11.3,1.73,15.19,4.54l-1.37,2.95c-4.18-2.88-9.29-4.25-13.83-4.25-9.79,0-14.19,4.54-14.19,10.08,0,15.12,31.47,6.19,31.47,24.48,0,7.13-5.69,13.32-18.15,13.32-7.49,0-14.69-2.81-18.36-6.84Z"/></g><g><path class="cls-1" d="M175.89,64.87c0,1.86-1.35,2.91-4.06,2.91h-4.91v-11.02h4.6c2.36,0,3.79,.99,3.79,2.82,0,1.31-.74,2.16-1.84,2.52,1.56,.3,2.42,1.24,2.42,2.77Zm-8.17-7.42v4.39h3.76c1.91,0,3.01-.74,3.01-2.21s-1.1-2.19-3.01-2.19h-3.76Zm7.37,7.35c0-1.57-1.15-2.27-3.26-2.27h-4.11v4.55h4.11c2.11,0,3.26-.69,3.26-2.28Z"/><path class="cls-1" d="M185.7,59.56v8.22h-.76v-1.76c-.54,1.15-1.65,1.83-3.1,1.83-2.09,0-3.43-1.18-3.43-3.48v-4.8h.79v4.74c0,1.86,.99,2.83,2.71,2.83,1.86,0,3.01-1.24,3.01-3.2v-4.38h.79Z"/><path class="cls-1" d="M187.83,66.79l.36-.63c.63,.54,1.75,.99,2.96,.99,1.73,0,2.42-.61,2.42-1.54,0-2.39-5.45-.63-5.45-3.86,0-1.24,1.04-2.25,3.12-2.25,1.04,0,2.17,.31,2.82,.8l-.36,.63c-.69-.5-1.59-.74-2.47-.74-1.61,0-2.32,.66-2.32,1.54,0,2.47,5.45,.72,5.45,3.86,0,1.34-1.15,2.25-3.24,2.25-1.35,0-2.65-.46-3.29-1.05Z"/><path class="cls-1" d="M196.32,56.93c0-.35,.28-.65,.65-.65s.65,.28,.65,.63-.28,.65-.65,.65-.65-.28-.65-.63Zm.25,2.63h.79v8.22h-.79v-8.22Z"/><path class="cls-1" d="M208.03,62.98v4.8h-.79v-4.74c0-1.86-.99-2.83-2.66-2.83-1.94,0-3.12,1.24-3.12,3.2v4.38h-.79v-8.22h.76v1.78c.55-1.15,1.7-1.84,3.26-1.84,2,0,3.34,1.18,3.34,3.48Z"/><path class="cls-1" d="M218.24,63.86h-7.07c.08,1.95,1.51,3.28,3.48,3.28,1.04,0,2-.38,2.63-1.15l.46,.52c-.72,.88-1.86,1.34-3.1,1.34-2.49,0-4.24-1.73-4.24-4.17s1.68-4.17,3.94-4.17,3.92,1.7,3.92,4.14c0,.06-.02,.14-.02,.22Zm-7.05-.61h6.3c-.11-1.78-1.4-3.06-3.15-3.06s-3.02,1.26-3.15,3.06Z"/><path class="cls-1" d="M219.48,66.79l.36-.63c.63,.54,1.75,.99,2.96,.99,1.73,0,2.42-.61,2.42-1.54,0-2.39-5.45-.63-5.45-3.86,0-1.24,1.04-2.25,3.12-2.25,1.04,0,2.17,.31,2.82,.8l-.36,.63c-.69-.5-1.59-.74-2.47-.74-1.61,0-2.32,.66-2.32,1.54,0,2.47,5.45,.72,5.45,3.86,0,1.34-1.15,2.25-3.24,2.25-1.35,0-2.65-.46-3.29-1.05Z"/><path class="cls-1" d="M227.01,66.79l.36-.63c.63,.54,1.75,.99,2.96,.99,1.73,0,2.42-.61,2.42-1.54,0-2.39-5.45-.63-5.45-3.86,0-1.24,1.04-2.25,3.12-2.25,1.04,0,2.17,.31,2.82,.8l-.36,.63c-.69-.5-1.59-.74-2.47-.74-1.61,0-2.32,.66-2.32,1.54,0,2.47,5.45,.72,5.45,3.86,0,1.34-1.15,2.25-3.24,2.25-1.35,0-2.65-.46-3.29-1.05Z"/><path class="cls-1" d="M238.93,66.37l.36-.6c.76,.79,2.16,1.39,3.64,1.39,2.21,0,3.18-.96,3.18-2.16,0-3.31-6.88-1.32-6.88-5.39,0-1.56,1.2-2.93,3.91-2.93,1.21,0,2.47,.38,3.32,.99l-.3,.65c-.91-.63-2.03-.93-3.02-.93-2.14,0-3.1,.99-3.1,2.21,0,3.31,6.88,1.35,6.88,5.35,0,1.56-1.24,2.91-3.97,2.91-1.64,0-3.21-.61-4.02-1.5Z"/><path class="cls-1" d="M248.49,63.67c0-2.44,1.75-4.17,4.11-4.17s4.11,1.73,4.11,4.17-1.75,4.17-4.11,4.17-4.11-1.73-4.11-4.17Zm7.42,0c0-2.06-1.42-3.46-3.31-3.46s-3.31,1.4-3.31,3.46,1.42,3.46,3.31,3.46,3.31-1.4,3.31-3.46Z"/><path class="cls-1" d="M259.15,56.1h.79v11.68h-.79v-11.68Z"/><path class="cls-1" d="M270.45,59.56v8.22h-.76v-1.76c-.54,1.15-1.65,1.83-3.1,1.83-2.09,0-3.43-1.18-3.43-3.48v-4.8h.79v4.74c0,1.86,.99,2.83,2.71,2.83,1.86,0,3.01-1.24,3.01-3.2v-4.38h.79Z"/><path class="cls-1" d="M277.87,67.26c-.41,.39-1.07,.58-1.69,.58-1.45,0-2.24-.85-2.24-2.24v-5.37h-1.51v-.68h1.51v-1.79h.79v1.79h2.61v.68h-2.61v5.29c0,1.05,.52,1.64,1.53,1.64,.49,0,.94-.16,1.28-.46l.33,.55Z"/><path class="cls-1" d="M279.81,56.93c0-.35,.28-.65,.65-.65s.65,.28,.65,.63-.28,.65-.65,.65-.65-.28-.65-.63Zm.25,2.63h.79v8.22h-.79v-8.22Z"/><path class="cls-1" d="M283.27,63.67c0-2.44,1.75-4.17,4.11-4.17s4.11,1.73,4.11,4.17-1.75,4.17-4.11,4.17-4.11-1.73-4.11-4.17Zm7.42,0c0-2.06-1.42-3.46-3.31-3.46s-3.31,1.4-3.31,3.46,1.42,3.46,3.31,3.46,3.31-1.4,3.31-3.46Z"/><path class="cls-1" d="M301.29,62.98v4.8h-.79v-4.74c0-1.86-.99-2.83-2.66-2.83-1.94,0-3.12,1.24-3.12,3.2v4.38h-.79v-8.22h.76v1.78c.55-1.15,1.7-1.84,3.26-1.84,2,0,3.34,1.18,3.34,3.48Z"/><path class="cls-1" d="M303.32,66.79l.36-.63c.63,.54,1.75,.99,2.96,.99,1.73,0,2.42-.61,2.42-1.54,0-2.39-5.45-.63-5.45-3.86,0-1.24,1.04-2.25,3.12-2.25,1.04,0,2.17,.31,2.82,.8l-.36,.63c-.69-.5-1.59-.74-2.47-.74-1.61,0-2.32,.66-2.32,1.54,0,2.47,5.45,.72,5.45,3.86,0,1.34-1.15,2.25-3.24,2.25-1.35,0-2.65-.46-3.29-1.05Z"/></g></g></g></svg>