<?xml version="1.0" encoding="UTF-8"?><svg id="Layer_2" xmlns="http://www.w3.org/2000/svg" viewBox="0 0 125 33"><defs><style>.cls-1{fill:#fff;}.cls-2{fill:#c64444;opacity:0;}</style></defs><g id="Layer_2-2"><rect class="cls-2" width="125" height="33"/><g id="Layer_1-2"><g><g><path class="cls-1" d="M26.91,28.96l-.04-14.88-7.29,12.25h-2.59l-7.26-11.93v14.56H4.35V4.17h4.75l9.28,15.41L27.52,4.17h4.71l.07,24.79h-5.39Z"/><path class="cls-1" d="M54.5,23.65h-11.51l-2.2,5.31h-5.88L45.97,4.17h5.67l11.09,24.79h-6.02l-2.2-5.31h0Zm-1.81-4.35l-3.93-9.49-3.93,9.49h7.86Z"/></g><g><path class="cls-1" d="M79.96,10.39c0,3.9-2.81,6.23-7.48,6.23h-5.31v6.08h-1.35V4.13h6.66c4.67,0,7.48,2.34,7.48,6.26Zm-1.38,0c0-3.21-2.12-5.04-6.1-5.04h-5.31V15.41h5.31c3.98,0,6.1-1.83,6.1-5.01Z"/><path class="cls-1" d="M83.01,13.42c0-5.39,4.11-9.42,9.66-9.42s9.66,4,9.66,9.42-4.14,9.42-9.66,9.42-9.66-4.03-9.66-9.42Zm17.93,0c0-4.7-3.56-8.17-8.28-8.17s-8.3,3.47-8.3,8.17,3.56,8.17,8.3,8.17,8.28-3.47,8.28-8.17Z"/><path class="cls-1" d="M105.13,20.31l.61-1.01c1.27,1.33,3.64,2.34,6.13,2.34,3.71,0,5.36-1.62,5.36-3.63,0-5.57-11.59-2.23-11.59-9.07,0-2.63,2.02-4.93,6.58-4.93,2.04,0,4.16,.64,5.6,1.67l-.5,1.09c-1.54-1.06-3.42-1.57-5.1-1.57-3.61,0-5.23,1.67-5.23,3.71,0,5.57,11.59,2.28,11.59,9.02,0,2.63-2.1,4.91-6.69,4.91-2.76,0-5.41-1.04-6.76-2.52h0Z"/></g><g><path class="cls-1" d="M69.15,27.9c0,.69-.5,1.07-1.5,1.07h-1.81v-4.06h1.69c.87,0,1.4,.36,1.4,1.04,0,.48-.27,.8-.68,.93,.57,.11,.89,.46,.89,1.02Zm-3.01-2.73v1.62h1.39c.7,0,1.11-.27,1.11-.81s-.41-.81-1.11-.81h-1.39Zm2.72,2.71c0-.58-.42-.84-1.2-.84h-1.51v1.68h1.51c.78,0,1.2-.25,1.2-.84Z"/><path class="cls-1" d="M72.77,25.94v3.03h-.28v-.65c-.2,.42-.61,.67-1.14,.67-.77,0-1.26-.43-1.26-1.28v-1.77h.29v1.75c0,.69,.36,1.04,1,1.04,.69,0,1.11-.46,1.11-1.18v-1.61h.29Z"/><path class="cls-1" d="M73.55,28.61l.13-.23c.23,.2,.64,.36,1.09,.36,.64,0,.89-.22,.89-.57,0-.88-2.01-.23-2.01-1.42,0-.46,.38-.83,1.15-.83,.38,0,.8,.11,1.04,.29l-.13,.23c-.25-.18-.59-.27-.91-.27-.59,0-.85,.24-.85,.57,0,.91,2.01,.27,2.01,1.42,0,.49-.42,.83-1.19,.83-.5,0-.98-.17-1.21-.39Z"/><path class="cls-1" d="M76.68,24.97c0-.13,.1-.24,.24-.24s.24,.1,.24,.23-.1,.24-.24,.24-.24-.1-.24-.23Zm.09,.97h.29v3.03h-.29v-3.03Z"/><path class="cls-1" d="M80.99,27.2v1.77h-.29v-1.75c0-.69-.36-1.04-.98-1.04-.71,0-1.15,.46-1.15,1.18v1.61h-.29v-3.03h.28v.66c.2-.42,.63-.68,1.2-.68,.74,0,1.23,.43,1.23,1.28h0Z"/><path class="cls-1" d="M84.76,27.53h-2.6c.03,.72,.56,1.21,1.28,1.21,.38,0,.74-.14,.97-.42l.17,.19c-.27,.32-.69,.49-1.14,.49-.92,0-1.56-.64-1.56-1.54s.62-1.54,1.45-1.54,1.44,.63,1.44,1.53c0,.02,0,.05,0,.08h0Zm-2.6-.23h2.32c-.04-.66-.52-1.13-1.16-1.13s-1.11,.46-1.16,1.13h0Z"/><path class="cls-1" d="M85.21,28.61l.13-.23c.23,.2,.64,.36,1.09,.36,.64,0,.89-.22,.89-.57,0-.88-2.01-.23-2.01-1.42,0-.46,.38-.83,1.15-.83,.38,0,.8,.11,1.04,.29l-.13,.23c-.25-.18-.59-.27-.91-.27-.59,0-.85,.24-.85,.57,0,.91,2.01,.27,2.01,1.42,0,.49-.42,.83-1.19,.83-.5,0-.98-.17-1.21-.39Z"/><path class="cls-1" d="M87.99,28.61l.13-.23c.23,.2,.64,.36,1.09,.36,.64,0,.89-.22,.89-.57,0-.88-2.01-.23-2.01-1.42,0-.46,.38-.83,1.15-.83,.38,0,.8,.11,1.04,.29l-.13,.23c-.25-.18-.59-.27-.91-.27-.59,0-.85,.24-.85,.57,0,.91,2.01,.27,2.01,1.42,0,.49-.42,.83-1.19,.83-.5,0-.98-.17-1.21-.39Z"/><path class="cls-1" d="M92.38,28.45l.13-.22c.28,.29,.8,.51,1.34,.51,.81,0,1.17-.35,1.17-.8,0-1.22-2.53-.49-2.53-1.99,0-.57,.44-1.08,1.44-1.08,.45,0,.91,.14,1.22,.36l-.11,.24c-.34-.23-.75-.34-1.11-.34-.79,0-1.14,.36-1.14,.81,0,1.22,2.53,.5,2.53,1.97,0,.57-.46,1.07-1.46,1.07-.6,0-1.18-.22-1.48-.55h0Z"/><path class="cls-1" d="M95.9,27.46c0-.9,.64-1.54,1.51-1.54s1.51,.64,1.51,1.54-.64,1.54-1.51,1.54-1.51-.64-1.51-1.54h0Zm2.73,0c0-.76-.52-1.27-1.22-1.27s-1.22,.52-1.22,1.27,.52,1.27,1.22,1.27,1.22-.52,1.22-1.27Z"/><path class="cls-1" d="M99.83,24.67h.29v4.3h-.29v-4.3Z"/><path class="cls-1" d="M103.99,25.94v3.03h-.28v-.65c-.2,.42-.61,.67-1.14,.67-.77,0-1.26-.43-1.26-1.28v-1.77h.29v1.75c0,.69,.36,1.04,1,1.04,.69,0,1.11-.46,1.11-1.18v-1.61h.29Z"/><path class="cls-1" d="M106.72,28.78c-.15,.14-.39,.21-.62,.21-.53,0-.83-.31-.83-.83v-1.98h-.56v-.25h.56v-.66h.29v.66h.96v.25h-.96v1.95c0,.39,.19,.6,.56,.6,.18,0,.35-.06,.47-.17l.12,.2h0Z"/><path class="cls-1" d="M107.44,24.97c0-.13,.1-.24,.24-.24s.24,.1,.24,.23-.1,.24-.24,.24-.24-.1-.24-.23Zm.09,.97h.29v3.03h-.29v-3.03Z"/><path class="cls-1" d="M108.71,27.46c0-.9,.64-1.54,1.51-1.54s1.51,.64,1.51,1.54-.64,1.54-1.51,1.54-1.51-.64-1.51-1.54Zm2.73,0c0-.76-.52-1.27-1.22-1.27s-1.22,.52-1.22,1.27,.52,1.27,1.22,1.27,1.22-.52,1.22-1.27Z"/><path class="cls-1" d="M115.35,27.2v1.77h-.29v-1.75c0-.69-.36-1.04-.98-1.04-.71,0-1.15,.46-1.15,1.18v1.61h-.29v-3.03h.28v.66c.2-.42,.63-.68,1.2-.68,.74,0,1.23,.43,1.23,1.28h0Z"/><path class="cls-1" d="M116.1,28.61l.13-.23c.23,.2,.64,.36,1.09,.36,.64,0,.89-.22,.89-.57,0-.88-2.01-.23-2.01-1.42,0-.46,.38-.83,1.15-.83,.38,0,.8,.11,1.04,.29l-.13,.23c-.25-.18-.59-.27-.91-.27-.59,0-.85,.24-.85,.57,0,.91,2.01,.27,2.01,1.42,0,.49-.42,.83-1.19,.83-.5,0-.98-.17-1.21-.39Z"/></g></g></g></g></svg>