<?xml version="1.0" encoding="UTF-8"?><svg id="Layer_2" xmlns="http://www.w3.org/2000/svg" viewBox="0 0 389.05 75.57"><defs><style>.cls-1{fill:#231f20;}</style></defs><g id="Layer_1-2"><g><g><path class="cls-1" d="M68.4,75.57l-.11-45.04-22.12,37.1h-7.84L16.32,31.5v44.07H0V.51H14.39l28.13,46.64L70.23,.51h14.28l.21,75.06h-16.32Z"/><path class="cls-1" d="M152.05,59.49h-34.9l-6.66,16.08h-17.83L126.17,.51h17.18l33.61,75.06h-18.26l-6.66-16.08Zm-5.48-13.19l-11.92-28.74-11.92,28.74h23.84Z"/></g><g><path class="cls-1" d="M180.66,49.4l1.85-3.05c3.86,4.02,11.02,7.07,18.58,7.07,11.26,0,16.25-4.9,16.25-11,0-16.87-35.15-6.75-35.15-27.47,0-7.95,6.11-14.94,19.95-14.94,6.19,0,12.63,1.93,16.97,5.06l-1.53,3.29c-4.66-3.21-10.38-4.74-15.44-4.74-10.94,0-15.85,5.06-15.85,11.24,0,16.87,35.15,6.91,35.15,27.31,0,7.95-6.35,14.86-20.27,14.86-8.36,0-16.41-3.13-20.51-7.63Z"/><path class="cls-1" d="M229.96,28.51c0-16.3,12.47-28.51,29.28-28.51s29.28,12.13,29.28,28.51-12.55,28.51-29.28,28.51-29.28-12.21-29.28-28.51Zm54.37,0c0-14.22-10.78-24.74-25.1-24.74s-25.18,10.52-25.18,24.74,10.78,24.74,25.18,24.74,25.1-10.52,25.1-24.74Z"/><path class="cls-1" d="M306.85,4.1V28.11h30v3.69h-30v24.82h-4.1V.4h37.64v3.69h-33.54Z"/><path class="cls-1" d="M364.68,4.1h-20.27V.4h44.64v3.69h-20.27V56.63h-4.1V4.1Z"/></g><g><path class="cls-1" d="M192.23,71.76c0,2.18-1.59,3.42-4.78,3.42h-5.78v-12.94h5.41c2.78,0,4.46,1.16,4.46,3.31,0,1.53-.87,2.53-2.17,2.96,1.83,.35,2.85,1.46,2.85,3.25Zm-9.61-8.71v5.16h4.42c2.24,0,3.54-.87,3.54-2.59s-1.3-2.57-3.54-2.57h-4.42Zm8.66,8.63c0-1.85-1.35-2.66-3.83-2.66h-4.83v5.34h4.83c2.48,0,3.83-.81,3.83-2.68Z"/><path class="cls-1" d="M195.49,69.69v-7.45h.94v7.41c0,3.24,1.55,4.75,4.26,4.75s4.24-1.52,4.24-4.75v-7.41h.94v7.45c0,3.7-1.98,5.58-5.2,5.58s-5.18-1.89-5.18-5.58Z"/><path class="cls-1" d="M208.97,73.51l.43-.7c.89,.92,2.54,1.63,4.28,1.63,2.59,0,3.74-1.13,3.74-2.53,0-3.88-8.09-1.55-8.09-6.32,0-1.83,1.41-3.44,4.59-3.44,1.43,0,2.91,.44,3.91,1.16l-.35,.76c-1.07-.74-2.39-1.09-3.55-1.09-2.52,0-3.65,1.16-3.65,2.59,0,3.88,8.09,1.59,8.09,6.29,0,1.83-1.46,3.42-4.67,3.42-1.92,0-3.78-.72-4.72-1.76Z"/><path class="cls-1" d="M221.56,62.24h.94v12.94h-.94v-12.94Z"/><path class="cls-1" d="M237.57,62.24v12.94h-.78l-8.83-11.24v11.24h-.94v-12.94h.8l8.81,11.24v-11.24h.94Z"/><path class="cls-1" d="M251.03,74.33v.85h-8.94v-12.94h8.66v.85h-7.72v5.1h6.9v.83h-6.9v5.3h8Z"/><path class="cls-1" d="M253.16,73.51l.43-.7c.89,.92,2.54,1.63,4.28,1.63,2.59,0,3.74-1.13,3.74-2.53,0-3.88-8.09-1.55-8.09-6.32,0-1.83,1.41-3.44,4.59-3.44,1.43,0,2.91,.44,3.91,1.16l-.35,.76c-1.07-.74-2.39-1.09-3.55-1.09-2.52,0-3.65,1.16-3.65,2.59,0,3.88,8.09,1.59,8.09,6.29,0,1.83-1.46,3.42-4.67,3.42-1.92,0-3.78-.72-4.72-1.76Z"/><path class="cls-1" d="M264.43,73.51l.43-.7c.89,.92,2.54,1.63,4.28,1.63,2.59,0,3.74-1.13,3.74-2.53,0-3.88-8.09-1.55-8.09-6.32,0-1.83,1.41-3.44,4.59-3.44,1.43,0,2.91,.44,3.91,1.16l-.35,.76c-1.07-.74-2.39-1.09-3.55-1.09-2.52,0-3.65,1.16-3.65,2.59,0,3.88,8.09,1.59,8.09,6.29,0,1.83-1.46,3.42-4.67,3.42-1.92,0-3.78-.72-4.72-1.76Z"/><path class="cls-1" d="M280.47,73.51l.43-.7c.89,.92,2.54,1.63,4.28,1.63,2.59,0,3.74-1.13,3.74-2.53,0-3.88-8.09-1.55-8.09-6.32,0-1.83,1.41-3.44,4.59-3.44,1.43,0,2.91,.44,3.91,1.16l-.35,.76c-1.07-.74-2.39-1.09-3.55-1.09-2.52,0-3.65,1.16-3.65,2.59,0,3.88,8.09,1.59,8.09,6.29,0,1.83-1.46,3.42-4.67,3.42-1.92,0-3.78-.72-4.72-1.76Z"/><path class="cls-1" d="M291.81,68.71c0-3.75,2.87-6.56,6.74-6.56s6.74,2.79,6.74,6.56-2.89,6.56-6.74,6.56-6.74-2.81-6.74-6.56Zm12.51,0c0-3.27-2.48-5.69-5.78-5.69s-5.79,2.42-5.79,5.69,2.48,5.69,5.79,5.69,5.78-2.42,5.78-5.69Z"/><path class="cls-1" d="M308.57,62.24h.94v12.09h7.46v.85h-8.4v-12.94Z"/><path class="cls-1" d="M319.03,69.69v-7.45h.94v7.41c0,3.24,1.55,4.75,4.26,4.75s4.24-1.52,4.24-4.75v-7.41h.94v7.45c0,3.7-1.98,5.58-5.2,5.58s-5.18-1.89-5.18-5.58Z"/><path class="cls-1" d="M336.04,63.09h-4.66v-.85h10.27v.85h-4.67v12.09h-.94v-12.09Z"/><path class="cls-1" d="M343.98,62.24h.94v12.94h-.94v-12.94Z"/><path class="cls-1" d="M348.21,68.71c0-3.75,2.87-6.56,6.74-6.56s6.74,2.79,6.74,6.56-2.89,6.56-6.74,6.56-6.74-2.81-6.74-6.56Zm12.51,0c0-3.27-2.48-5.69-5.78-5.69s-5.79,2.42-5.79,5.69,2.48,5.69,5.79,5.69,5.78-2.42,5.78-5.69Z"/><path class="cls-1" d="M375.51,62.24v12.94h-.78l-8.83-11.24v11.24h-.94v-12.94h.8l8.81,11.24v-11.24h.94Z"/><path class="cls-1" d="M378.71,73.51l.43-.7c.89,.92,2.54,1.63,4.28,1.63,2.59,0,3.74-1.13,3.74-2.53,0-3.88-8.09-1.55-8.09-6.32,0-1.83,1.41-3.44,4.59-3.44,1.43,0,2.91,.44,3.91,1.16l-.35,.76c-1.07-.74-2.39-1.09-3.55-1.09-2.52,0-3.65,1.16-3.65,2.59,0,3.88,8.09,1.59,8.09,6.29,0,1.83-1.46,3.42-4.67,3.42-1.92,0-3.78-.72-4.72-1.76Z"/></g></g></g></svg>